<?xml version="1.0" standalone="no"?>
<!DOCTYPE svg PUBLIC "-//W3C//DTD SVG 20010904//EN"
 "http://www.w3.org/TR/2001/REC-SVG-20010904/DTD/svg10.dtd">
<svg version="1.0" xmlns="http://www.w3.org/2000/svg"
 width="133.000000pt" height="133.000000pt" viewBox="0 0 133.000000 133.000000"
 preserveAspectRatio="xMidYMid meet">

<g transform="translate(0.000000,133.000000) scale(0.100000,-0.100000)"
fill="#000000" stroke="none">
<path d="M639 1290 c-26 -4 -58 -16 -73 -25 -36 -24 -85 -128 -97 -210 -12
-76 -36 -130 -68 -157 -39 -33 -20 -108 48 -188 33 -40 39 -56 54 -145 9 -55
21 -149 27 -208 17 -177 70 -281 142 -281 67 0 120 57 133 140 6 45 37 138 74
229 11 28 30 84 43 125 18 61 32 86 76 133 84 92 93 140 37 207 -35 42 -35 42
-35 143 0 87 -4 108 -23 142 -50 88 -172 123 -338 95z m19 -237 c4 -57 -32
-145 -74 -182 -40 -35 -63 -39 -94 -13 -26 21 -20 42 19 65 26 15 71 87 71
114 0 17 50 65 63 60 6 -2 13 -22 15 -44z m204 -10 c9 -10 26 -42 38 -71 14
-32 38 -66 63 -86 35 -29 38 -35 28 -54 -14 -27 -61 -29 -98 -5 -42 28 -102
178 -87 218 8 20 37 19 56 -2z m-113 -193 c10 -5 24 -23 31 -41 11 -26 11 -32
-1 -40 -15 -9 -62 -3 -92 13 -16 8 -16 11 -2 37 12 25 24 35 43 40 2 1 11 -3
21 -9z m6 -164 c92 -27 110 -134 45 -271 -27 -56 -35 -88 -40 -161 -4 -50 -13
-100 -19 -112 -12 -23 -47 -36 -77 -30 -56 11 -88 146 -89 372 l0 158 35 29
c38 32 76 36 145 15z"/>
</g>
</svg>
